<svg width="15" height="15" viewBox="0 0 15 15" fill="none" xmlns="http://www.w3.org/2000/svg">
<path d="M14.8438 13.0682H1.40625V0.659091C1.40625 0.571591 1.33594 0.5 1.25 0.5H0.15625C0.0703125 0.5 0 0.571591 0 0.659091V14.3409C0 14.4284 0.0703125 14.5 0.15625 14.5H14.8438C14.9297 14.5 15 14.4284 15 14.3409V13.2273C15 13.1398 14.9297 13.0682 14.8438 13.0682ZM2.8125 11.7955H13.2812C13.3672 11.7955 13.4375 11.7239 13.4375 11.6364V2.96591C13.4375 2.82273 13.2676 2.75312 13.1699 2.85256L9.0625 7.03466L6.61328 4.56875C6.58391 4.53914 6.54426 4.52253 6.50293 4.52253C6.4616 4.52253 6.42194 4.53914 6.39258 4.56875L2.70117 8.3392C2.68683 8.35383 2.67548 8.3712 2.66777 8.39031C2.66006 8.40943 2.65615 8.4299 2.65625 8.45057V11.6364C2.65625 11.7239 2.72656 11.7955 2.8125 11.7955Z" fill="#9A9EA5"/>
</svg>
